<svg id="Layer_1" xmlns="http://www.w3.org/2000/svg" viewBox="0 0 120.3 120.4"><style>.st0{fill:#ec8123}</style><path class="st0" d="M118.6 0H0v120.3h120.3V0h-1.7zm-11.5 5c-8.3 6-23 10.3-39.5 11.3-1.4-2.7-4.2-4.6-7.5-4.6s-6.1 1.9-7.5 4.6c-16.5-1-31.2-5.2-39.5-11.3h94zM63.5 20.1c0 1.9-1.5 3.4-3.4 3.4s-3.4-1.5-3.4-3.4 1.5-3.4 3.4-3.4 3.4 1.5 3.4 3.4zM5 11.3l29.8 64.1H5V11.3zm0 69.2h34.4c-1.2 18.4-16 33.2-34.4 34.4V80.5zm16.5 34.9c13.6-7 23-21.1 23-37.4v-2.5h-4.2L9 8.1c8.9 7.1 24.7 12 42.8 13.1.4 2.9 2.3 5.3 4.9 6.5l-5.9 87.6H21.5zm34.4 0l4.3-63.6 4.3 63.6h-8.6zm13.6 0l-5.9-87.6c2.6-1.1 4.5-3.6 4.9-6.5C88 20 105 14.4 113.3 6.4L81.2 75.5h-5.4V78c0 16.3 9.3 30.5 23 37.4H69.5zm45.8-.5c-18.4-1.2-33.2-16-34.4-34.4h34.4v34.4zm0-39.4H86.8l28.6-61.6v61.6z"/></svg>