<svg id="Layer_1" xmlns="http://www.w3.org/2000/svg" viewBox="0 0 120.3 120.3"><style>.st0{fill:#7460aa}</style><path class="st0" d="M0 0v120.3h120.3V0H0zm5 41.9h15.1v4.8h-6.7v28.8H5V41.9zm84-9.8v4.8H31.4v-4.8H89zm-50.9-5v-4.8h44v4.8h-44zm57.2 14.8v4.8H25.1v-4.8h70.2zm6.7 9.8v23.8H18.3V51.7H102zm13.3 63.6H5V80.4h110.3v34.9zm0-39.9H107V46.7h-6.8v-4.8h15.1v33.5zm0-38.5H94v-9.8h-6.8v-9.8h-54v9.8h-6.8v9.8H5V5h110.3v31.9zm-55.1 67.3c9 0 16.2-7.3 16.2-16.2v-2.5H43.9V88c0 8.9 7.3 16.2 16.3 16.2zm10.9-13.7c-1.1 5-5.6 8.7-11 8.7-5.3 0-9.8-3.7-11-8.7h22zM39.1 56h-16v16h16.1V56zm-5 11H28v-6h6.1v6zm36.1-5.3h-28v5h28v-5z"/></svg>