<svg id="Layer_1" xmlns="http://www.w3.org/2000/svg" viewBox="0 0 120.3 120.3"><style>.st0{fill:#4c9ed7}</style><path class="st0" d="M0 0v120.3h120.3V0H0zm72.7 5l24.2 52.6H21.6L46.3 5h26.4zM102 62.6c-1.3 22.5-20 40.3-42.8 40.3-22.8 0-41.5-17.9-42.8-40.3H102zm13.3 52.7H5V5h35.8L16.1 57.6h-4.7v2.5c0 26.4 21.5 47.8 47.8 47.8 26.4 0 47.8-21.5 47.8-47.8v-2.5h-4.7L78.2 5h37.1v110.3zM28.2 73.8l-1.8 5.4 4.6-3.4 4.6 3.4-1.8-5.4 4.6-3.3h-5.7L31 65.1l-1.7 5.4h-5.7l4.6 3.3zM39.3 87l-1.8 5.4 4.6-3.4 4.6 3.4L45 87l4.6-3.3h-5.7l-1.7-5.4-1.7 5.4h-5.7l4.5 3.3zm15.2 12.5l4.6-3.4 4.6 3.4-1.8-5.4 4.6-3.3h-5.7l-1.7-5.4-1.7 5.4h-5.7l4.6 3.3-1.8 5.4zm17.3-7.4l4.6-3.4 4.6 3.4-1.8-5.4 4.6-3.3h-5.7L76.4 78l-1.7 5.4H69l4.6 3.3-1.8 5.4zm13-12.8l4.6-3.4 4.6 3.4-1.8-5.4 4.6-3.3h-5.7l-1.7-5.4-1.7 5.4H82l4.6 3.3-1.8 5.4z"/></svg>