<svg xmlns="http://www.w3.org/2000/svg">
	<symbol id="stenik" viewBox="-255 347 100 100">
		<path fill-rule="evenodd" clip-rule="evenodd" fill="#000" d="M-205 348.6c26.7 0 48.4 21.7 48.4 48.4s-21.7 48.4-48.4 48.4-48.4-21.7-48.4-48.4 21.7-48.4 48.4-48.4z"/>
		<path fill="#fff" d="M-209.5 366.6c1.7 0 3.4.1 5.2.4 5.5.8 9.6 2.1 14.8 3.7 4.7 1.5 10.6 3.4 19.1 5.3l-5.9 23.7c-4.5-7.1-14.1-10.5-29.5-10.5-2.2 0-4.6.1-7 .2h-1.5c-6 0-9.2-2.2-10.8-4.1-1.7-1.9-2.5-4.4-2.2-6.7 1-7.5 7.7-12 17.8-12m-24.2 27.3c5.3 8.6 17 9 35 9h.8c6.8 0 10.4 2.4 12.2 4.4 1.7 2 2.5 4.4 2.2 6.8-1.1 8.3-7.5 13.2-17.3 13.2-1.5 0-3-.1-4.5-.3-5.6-.8-9.9-2.1-15.4-3.8-4.7-1.4-10.6-3.2-18.8-5.1l5.8-24.2"/>
	</symbol>
	<symbol id="swipe" viewBox="-283.4 386.6 20.7 21.4">
		<path d="M-265.3 398.2c-1.5-1-3.6-.8-5 .6l-.7.7V390c0-1.1-.9-2-2-2s-2 .9-2 2v4.4c-.4-.4-.9-.7-1.5-.7-.4 0-.8.1-1.2.4l-4.3 2.5c-.6.3-1 1-1 1.7v3.3c0 3.6 2.9 6.5 6.5 6.5 1.7 0 3.3-.7 4.5-1.8l6.9-6.9c.3-.3.3-.7 0-1-.2-.1-.2-.1-.2-.2zM-266 393.4l3.4-3.4-3.4-3.4v2.4h-3v2h3M-280 391h3v-2h-3v-2.4l-3.4 3.4 3.4 3.4"/>
	</symbol>
	<symbol id="prev" viewBox="271.7 611.1 51.8 103.7">
		<path d="M308.2 614.3c3-3.7 8.4-4.3 12.1-1.4 3.7 3 4.3 8.4 1.4 12.1l-30.2 37.8 30.2 37.8c3 3.7 2.4 9.2-1.4 12.1-3.7 3-9.2 2.4-12.1-1.4l-34.6-43.2c-2.5-3.2-2.5-7.6 0-10.8l34.6-43z"/>
	</symbol>
	<symbol id="next" viewBox="271.7 611.1 51.8 103.7">
		<path d="M287.1 711.5c-3 3.7-8.4 4.3-12.1 1.4-3.7-3-4.3-8.4-1.4-12.1l30.2-37.8-30.2-37.8c-3-3.7-2.4-9.2 1.4-12.1 3.7-3 9.2-2.4 12.1 1.4l34.6 43.2c2.5 3.2 2.5 7.6 0 10.8l-34.6 43z"/>
	</symbol>
	<symbol id="mouse" viewBox="192.2 274 210.8 414.8">
		<path d="M403.1 377.1c0-56.9-46.2-103.1-103.1-103.1h-4.7c-56.9 0-103.1 46.2-103.1 103.1v87.6c0 56.9 46.2 103.1 103.1 103.1h4.7c56.9 0 103.1-46.2 103.1-103.1v-87.6zm-17.3 87.6c0 23.7-9.6 45.1-25.1 60.7-15.6 15.5-37 25.1-60.7 25.1h-4.7c-23.7 0-45.1-9.6-60.7-25.1-15.5-15.6-25.1-37-25.1-60.7v-87.6c0-23.7 9.6-45.1 25.1-60.7 15.6-15.5 37-25.1 60.7-25.1h4.7c23.7 0 45.1 9.6 60.7 25.1 15.5 15.6 25.1 37 25.1 60.7v87.6zm-79.7-95.2v25.3c0 4.8-3.9 8.6-8.6 8.6-4.8 0-8.6-3.9-8.6-8.6v-25.3c0-4.8 3.9-8.6 8.6-8.6 4.8-.1 8.6 3.8 8.6 8.6zM249 652.4c-3.7-3-4.3-8.4-1.4-12.1 3-3.7 8.4-4.3 12.1-1.4l37.8 30.2 37.8-30.2c3.7-3 9.2-2.4 12.1 1.4 3 3.7 2.4 9.2-1.4 12.1l-43 34.5c-3.2 2.5-7.6 2.5-10.8 0L249 652.4z"/>
	</symbol>
	<symbol id="play" viewBox="-250 352 90 90">
		<path d="M-205 352c-24.9 0-45 20.1-45 45s20.1 45 45 45 45-20.1 45-45-20.1-45-45-45zm0 85c-22.1 0-40-17.9-40-40s17.9-40 40-40 40 17.9 40 40-17.9 40-40 40z"/>
		<path d="M-187.5 393.6l-11.4-7.9-9.8-6.8c-2.7-1.9-6.4.1-6.4 3.4v29.4c0 3.3 3.7 5.2 6.4 3.4l9.8-6.8 11.4-7.9c2.3-1.7 2.3-5.1 0-6.8z"/>
	</symbol>
	<symbol id="facebook" viewBox="-293 385 24 24">
		<path d="M-281 385c-6.6 0-12 5.4-12 12s5.4 12 12 12 12-5.4 12-12-5.4-12-12-12zm3 8h-1.4c-.5 0-.6.2-.6.8v1.2h2l-.2 2h-1.8v7h-3v-7h-2v-2h2v-2.3c0-1.8.9-2.7 3-2.7h2v3z"/>
	</symbol>
	<symbol id="google" viewBox="-293 385 24 24">
		<path d="M-281 385c-6.6 0-12 5.4-12 12s5.4 12 12 12 12-5.4 12-12-5.4-12-12-12zm-2.9 16.1c-2.3 0-4.1-1.8-4.1-4.1s1.8-4.1 4.1-4.1c1.1 0 2 .4 2.7 1.1l-1.1 1.1c-.3-.3-.8-.6-1.6-.6-1.4 0-2.5 1.2-2.5 2.6 0 1.4 1.1 2.6 2.5 2.6 1.6 0 2.2-1.2 2.3-1.8h-2.3v-1.4h3.9c0 .2.1.4.1.7-.1 2.2-1.7 3.9-4 3.9zm9.9-3.5h-1.8v1.8h-1.2v-1.8h-1.8v-1.2h1.8v-1.8h1.2v1.8h1.8v1.2z"/>
	</symbol>
	<symbol id="twitter" viewBox="-293 385 24 24">
		<path d="M-281 385c-6.6 0-12 5.4-12 12s5.4 12 12 12 12-5.4 12-12-5.4-12-12-12zm6.1 9.6c.2 4-2.8 8.5-8.2 8.5-1.6 0-3.1-.5-4.4-1.3 1.5.2 3-.2 4.3-1.2-1.3 0-2.3-.9-2.7-2 .5.1.9.1 1.3 0-1.4-.3-2.3-1.5-2.3-2.9.4.2.8.3 1.3.4-1.3-.9-1.6-2.5-.9-3.8 1.4 1.7 3.5 2.9 5.9 3-.4-1.8.9-3.5 2.8-3.5.8 0 1.6.3 2.1.9.7-.1 1.3-.4 1.8-.7-.2.7-.7 1.2-1.3 1.6.6-.1 1.1-.2 1.6-.5-.3.6-.8 1.1-1.3 1.5z"/>
	</symbol>
	<symbol id="instagram" viewBox="-293 385 24 24">
		<path d="M-275.2 391.6v1.5c0 .2-.2.4-.4.4h-1.5c-.2 0-.4-.2-.4-.4v-1.5c0-.2.2-.4.4-.4h1.5c.2 0 .4.2.4.4zm-5.8 7.5c1.1 0 2-.9 2-2s-.9-2-2-2-2 .9-2 2 .9 2 2 2zm12-2.1c0 6.6-5.4 12-12 12s-12-5.4-12-12 5.4-12 12-12 12 5.4 12 12zm-5-1.7h-4c.3.5.5 1.1.5 1.8 0 2-1.6 3.6-3.6 3.6s-3.6-1.6-3.6-3.6c0-.7.2-1.3.5-1.8h-3.9v6c0 1.5 1.3 2.8 2.8 2.8h8.5c1.5 0 2.8-1.2 2.8-2.8v-6zm-7 4.5c1.5 0 2.7-1.2 2.7-2.7 0-.8-.4-1.6-.9-2.1-.2-.2-.4-.3-.7-.4-.3-.2-.7-.2-1.1-.2-.4 0-.8.1-1.1.2-.2.1-.5.3-.7.4-.6.5-.9 1.2-.9 2.1-.1 1.5 1.2 2.7 2.7 2.7zm7-7c0-1.5-1.2-2.8-2.8-2.8h-7.2v2.9h-.6V390h-.6v2.9h-.6V390c-.2 0-.4.1-.6.2v2.7h-.6v-2.4c-.7.5-1.2 1.3-1.2 2.2v1.9h4.4c.7-.7 1.6-1.2 2.6-1.2s2 .4 2.6 1.2h4.4v-1.8z"/>
	</symbol>
	<symbol id="linkedin" viewBox="5 5 90 90">
		<path d="M50 5c24.9 0 45 20.1 45 45S74.9 95 50 95 5 74.9 5 50 25.1 5 50 5zM31.3 67.9H39V43.6h-7.7v24.3zM60 43.3c-4.4 0-7.2 2.4-7.7 4.1v-3.8h-8.6c.1 2 0 24.4 0 24.4h8.6V54.7c0-.7 0-1.5.2-2 .6-1.5 1.9-3 4.2-3 3 0 4.4 2.3 4.4 5.6v12.6h8.7V54.4c-.1-7.6-4.4-11.1-9.8-11.1zM35 32.1c-2.8 0-4.7 1.8-4.7 4.2 0 2.4 1.8 4.2 4.6 4.2h.1c2.9 0 4.7-1.9 4.7-4.2-.1-2.4-1.9-4.2-4.7-4.2z"/>
	</symbol>
	<symbol id="youtube" viewBox="5 5 90 90">
		<path d="M45.7 43.6l11.3 6-11.3 5.9V43.6zM95 50c0 24.9-20.1 45-45 45S5 74.9 5 50 25.1 5 50 5s45 20.1 45 45zm-24.1-1.6c0-3.4-.4-6.8-.4-6.8s-.4-2.9-1.7-4.2c-1.6-1.7-3.4-1.7-4.2-1.8-5.8-.4-14.6-.4-14.6-.4s-8.8 0-14.6.4c-.8.1-2.6.1-4.2 1.8-1.3 1.3-1.7 4.2-1.7 4.2s-.4 3.4-.4 6.8v3.2c0 3.4.4 6.8.4 6.8s.4 2.9 1.7 4.2c1.6 1.7 3.7 1.6 4.6 1.8 3.3.3 14.2.4 14.2.4s8.8 0 14.6-.4c.8-.1 2.6-.1 4.2-1.8 1.3-1.3 1.7-4.2 1.7-4.2s.4-3.4.4-6.8v-3.2z"/>
	</symbol>
	<symbol id="figure1" viewBox="0 0 200 140">
		<path d="M101.9 64.1c-12.6 0-22.8 10.2-22.8 22.8 0 12.6 10.2 22.8 22.8 22.8 12.6 0 22.8-10.2 22.8-22.8 0-12.6-10.2-22.8-22.8-22.8zm0 36.8c-7.7 0-14-6.3-14-14s6.3-14 14-14 14 6.3 14 14-6.2 14-14 14zm0-26c-6.6 0-12 5.4-12 12s5.4 12 12 12 12-5.4 12-12-5.3-12-12-12zM158.5 97c-1.9 0-3.4 1.5-3.4 3.4s1.5 3.4 3.4 3.4 3.4-1.5 3.4-3.4-1.5-3.4-3.4-3.4zm0-5.9c-5.1 0-9.2 4.1-9.2 9.2s4.1 9.2 9.2 9.2 9.2-4.1 9.2-9.2c0-5-4.1-9.2-9.2-9.2zm0 14.6c-3 0-5.4-2.4-5.4-5.4 0-3 2.4-5.4 5.4-5.4s5.4 2.4 5.4 5.4c0 3-2.4 5.4-5.4 5.4zm22.4-46.3h-30.4V49.3v-.2l1.8-1.8 3.5-3.5c1.1-1.1-.6-2.9-1.8-1.8l-3.5 3.5c-.7.7-2.5 1.9-2.5 3.1v10.8h-11.6c-2.8 0-5.6-2.2-6.3-4.8l-5-19.3c-.7-2.7-3.5-4.8-6.3-4.8H93.4c-2.8 0-5 2.3-5 5v30.2c3.9-2.5 8.5-3.9 13.5-3.9 13.9 0 25.3 11.3 25.3 25.3 0 .8 0 1.7-.1 2.5h48.4l8.5-25.4c1-2.8-.3-4.8-3.1-4.8zm-57.6.9c-.5 0-.9-.4-1-.8l-4.8-18.4c-.3-1.1-1.6-2.2-2.8-2.2H99.5c-1.1 0-2 .9-2 2v6c0 .6-.4 1-1 1s-1-.4-1-1v-6c0-2.2 1.8-4 4-4h15.3c2.1 0 4.2 1.6 4.7 3.6l4.8 18.3c0 .1.1.2.1.3-.1.8-.5 1.2-1.1 1.2zM171 75.1h-14.3c-1.6 0-1.6-2.5 0-2.5H171c1.6 0 1.6 2.5 0 2.5zm2.9-5.5h-14.3c-1.6 0-1.6-2.5 0-2.5h14.3c1.6 0 1.6 2.5 0 2.5zM75.4 82.5H17.6h-.1c-.8 0-1.3.5-1.6 1.1-.3.6-.3 1.4.3 2v.1l19.5 19.5c1.7 1.7 4.4-.9 2.7-2.7L22.1 86.3h10.3l19 19c1.7 1.7 4.4-.9 2.7-2.7L37.7 86.3h10.9l19 19c1.7 1.7 4.4-.9 2.7-2.7L54 86.3h21.5c2.4 0 2.4-3.8-.1-3.8z"/>
	</symbol>
	<symbol id="figure2" viewBox="0 0 200 140">
		<path d="M121.2 96.2c0 5.7 4.6 10.3 10.3 10.3s10.3-4.6 10.3-10.3c0-5.7-4.6-10.3-10.3-10.3s-10.3 4.7-10.3 10.3zm-9.2 0c0 10.7 8.7 19.4 19.4 19.4s19.4-8.7 19.4-19.4-8.7-19.4-19.4-19.4S112 85.5 112 96.2zm7.5 0c0-6.6 5.4-12 12-12s12 5.4 12 12-5.4 12-12 12-12-5.4-12-12zm-72.4 0c0 10.7 8.7 19.4 19.4 19.4S86 107 86 96.2s-8.7-19.4-19.4-19.4-19.5 8.7-19.5 19.4zm7.5 0c0-6.6 5.4-12 12-12s12 5.4 12 12-5.4 12-12 12-12-5.4-12-12zm1.7 0c0 5.7 4.6 10.3 10.3 10.3 5.7 0 10.3-4.6 10.3-10.3 0-5.7-4.6-10.3-10.3-10.3-5.7.1-10.3 4.7-10.3 10.3zM45 75.2v7.7c0 1.7.9 3.3 2.3 4.3C50.7 80 58 74.9 66.5 74.9c10.8 0 19.8 8.1 21.1 18.6l22.6 3.2v-.4c0-11.7 9.5-21.3 21.3-21.3s21.3 9.5 21.3 21.3c0 1.2-.1 2.3-.3 3.4h14.3c2.5 0 4.6-2.1 4.6-4.6V73.2c0-2.5-1.1-6.4-2.4-8.5L154.7 41c-1.3-2.2-4.5-3.9-7-3.9h-15.8c-2.5 0-5.6 1.8-6.8 4.1L106.9 75c-1.2 2.2-4.2 3.8-6.7 3.4l-50.7-7.1c-2.5-.4-4.5 1.3-4.5 3.9zm78.4-17.5c0-.2.1-.3.2-.5l5.6-10.3c1-1.9 3.4-3.3 5.5-3.3h10.9c2.1 0 4.6 1.4 5.7 3.2l9.9 16.4c1 1.6 1.8 4.4 1.8 6.4 0 .5-.4.9-.9.9s-.9-.4-.9-.9c0-1.6-.7-4.1-1.5-5.4l-9.9-16.4c-.7-1.2-2.6-2.3-4-2.3h-10.9c-1.4 0-3.2 1.1-3.9 2.3l-5.6 10.3c-.2.3-.5.6-.9.6-.7-.1-1.1-.5-1.1-1zm-88.7 9.1l63.5 9.3c2.5.4 5.6-1.1 6.8-3.4l20.6-37c1.2-2.2 4.3-4.4 6.8-4.8l25.2-4.2c2.5-.4 2.5-.8-.1-.8h-44.8c-2.5 0-6.1 1.5-7.9 3.3L101 33c-1.8 1.8-5.3 3.3-7.9 3.3H41c-2.5 0-5 2-5.6 4.5L31 61.6c-.4 2.5 1.2 4.9 3.7 5.2zm55.3.7c4.7-8.7 9.4-17.5 14.2-26.2.7-1.4 2.8-.1 2.1 1.2-4.8 8.8-9.5 17.5-14.3 26.2-.7 1.4-2.7.2-2-1.2zm-22.9-3.9l12-22.2c.7-1.4 2.8-.1 2.1 1.2l-12 22.2c-.8 1.3-2.8.1-2.1-1.2zm-22-3.9L55 41.4c.7-1.4 2.8-.1 2.1 1.2-3.3 6.1-6.6 12.3-9.9 18.4-.8 1.3-2.8.1-2.1-1.3z"/>
	</symbol>
	<symbol id="figure3" viewBox="0 0 200 140">
		<path d="M163.8 48.1l-23.4-15.2c-.9-.6-2-.9-3.2-1.1V28h7.3v-5H54.3v5h10.5v3.8c-1.2.1-2.3.5-3.2 1.1L38.2 48.1c-2.3 1.5-4.2 5-4.2 7.7V114c0 2.8 2.3 5 5 5h53.5c2.8 0 5-2.3 5-5V55.8c0-2.8-1.9-6.2-4.2-7.7L69.9 32.9c-.9-.6-2-.9-3.2-1.1V28h68.5v3.8c-1.2.1-2.3.5-3.2 1.1l-23.4 15.2c-2.3 1.5-4.2 5-4.2 7.7V114c0 2.8 2.3 5 5 5H163c2.8 0 5-2.3 5-5V55.8c0-2.8-1.9-6.2-4.2-7.7zM63 35.4s-.1.1 0 0L52.8 55v54c0 .5-.4.9-.9.9s-.9-.4-.9-.9V54.6l11.7-19c-.2.2-.7.6-1.5 1.2L46 49.3c-2.2 1.6-4 5.2-4 8V113c0 2.8-1.2 3.6-2.8 3.6s-2.8-.9-2.8-3.6V57.1c0-2.8 1.9-6.2 4.3-7.6L61 36.3c1.3-.6 1.9-.9 2-.9zm70.5 0s-.1.1 0 0L123.3 55v54c0 .5-.4.9-.9.9s-.9-.4-.9-.9V54.6l11.7-19c-.2.2-.7.6-1.5 1.2l-15.4 12.5c-2.2 1.6-4 5.2-4 8V113c0 2.8-1.2 3.6-2.8 3.6s-2.8-.9-2.8-3.6V57.1c0-2.8 1.9-6.2 4.3-7.6l20.3-13.2c1.5-.6 2.1-.9 2.2-.9z"/>
	</symbol>
	<symbol id="figure4" viewBox="0 0 200 140">
		<path d="M82.4 100.9c0-6.2 3.5-11.5 8.6-14.2H41.2c-7.9 0-14.2 6.4-14.2 14.2 0 7.9 6.4 14.2 14.2 14.2H91c-5.1-2.6-8.6-8-8.6-14.2zm-31.5 7.8H37.3c-1.6 0-1.6-2.5 0-2.5H51c1.6 0 1.6 2.5-.1 2.5zm27.3-13.5H64.5c-1.6 0-1.6-2.5 0-2.5h13.7c1.6 0 1.6 2.5 0 2.5zm35.5.4c1.4-3.8 4.1-7 7.7-8.9H106c3.6 1.9 6.3 5.1 7.7 8.9zm14.9-51.1c2.3 0 4.1-1.8 4.1-4.1s-1.8-4.1-4.1-4.1-4.1 1.8-4.1 4.1 1.9 4.1 4.1 4.1zm0 31.5c-1.4 3.8-4.1 7-7.6 8.9h15.3c-3.6-1.9-6.3-5.1-7.7-8.9zM56 84.8h49.9c-5.1-2.7-8.6-8.1-8.6-14.2 0-6.2 3.5-11.5 8.6-14.2H56.2c-7.9 0-14.2 6.4-14.2 14.2-.1 7.8 6.2 14.1 14 14.2zm18.8-8.4h13.7c1.6 0 1.6 2.5 0 2.5H74.8c-1.6 0-1.6-2.5 0-2.5zM55.6 64.9h13.7c1.6 0 1.6 2.5 0 2.5H55.6c-1.6 0-1.6-2.5 0-2.5zm59-24.7c0 7.9 6.4 14.2 14.2 14.2S143 48 143 40.2c0-7.9-6.4-14.2-14.2-14.2s-14.2 6.4-14.2 14.2zm14-9.8c5.5 0 10 4.5 10 10s-4.5 10-10 10-10-4.5-10-10c.1-5.5 4.5-10 10-10zm-57 24.1h49.8c-5.1-2.7-8.6-8.1-8.6-14.2 0-6.2 3.5-11.5 8.6-14.2H71.6c-7.9 0-14.2 6.4-14.2 14.2-.1 7.8 6.3 14.2 14.2 14.2zM95 31.2h13.7c1.6 0 1.6 2.5 0 2.5H95c-1.6 0-1.6-2.5 0-2.5zm-25.7 15H83c1.6 0 1.6 2.5 0 2.5H69.3c-1.6 0-1.6-2.5 0-2.5zm59.3 3.1c4.9 0 9-4 9-9s-4-9-9-9c-4.9 0-9 4-9 9s4.1 9 9 9zm0-14c2.8 0 5.1 2.3 5.1 5.1s-2.3 5.1-5.1 5.1-5.1-2.3-5.1-5.1 2.3-5.1 5.1-5.1zm0 29.9c1.4-3.8 4.1-7 7.7-8.9H121c3.5 1.9 6.3 5.1 7.6 8.9zm15.7 14.4c4.9 0 9-4 9-9s-4-9-9-9c-4.9 0-9 4-9 9s4 9 9 9zm0-14.1c2.8 0 5.1 2.3 5.1 5.1s-2.3 5.1-5.1 5.1-5.1-2.3-5.1-5.1 2.2-5.1 5.1-5.1zm0 9.2c2.3 0 4.1-1.8 4.1-4.1s-1.8-4.1-4.1-4.1-4.1 1.8-4.1 4.1 1.8 4.1 4.1 4.1zm-.5 12h-7.4c3.6 1.9 6.3 5.1 7.7 8.9 1.4-3.8 4.1-7 7.7-8.9h-8zm-14.2-16.1c0 7.8 6.3 14.2 14.1 14.3h.4c7.8-.1 14.1-6.4 14.1-14.2 0-7.9-6.4-14.2-14.2-14.2-8-.1-14.4 6.2-14.4 14.1zm14.7-10c5.5 0 10 4.5 10 10s-4.5 10-10 10-10-4.5-10-10 4.5-10 10-10zm-30.8 14.1c2.3 0 4.1-1.8 4.1-4.1s-1.8-4.1-4.1-4.1-4.1 1.8-4.1 4.1 1.9 4.1 4.1 4.1zm-14.3-4.1c0 7.8 6.3 14.1 14.1 14.2h.4c7.8-.1 14-6.4 14.1-14.2 0-7.8-6.4-14.2-14.2-14.2-8 0-14.4 6.3-14.4 14.2zm24.3 0c0 5.5-4.5 10-10 10s-10-4.5-10-10 4.5-10 10-10 10 4.5 10 10zm-10 9c4.9 0 9-4 9-9s-4-9-9-9-9 4-9 9 4.1 9 9 9zm0-14.1c2.8 0 5.1 2.3 5.1 5.1s-2.3 5.1-5.1 5.1-5.1-2.3-5.1-5.1 2.3-5.1 5.1-5.1zm-.8 35.5c0-.1 0-.1 0 0 0-7.9-6.3-14.2-14.1-14.3h-.4c-7.8.1-14.1 6.4-14.1 14.2 0 7.9 6.4 14.2 14.2 14.2 8 .1 14.4-6.3 14.4-14.1zm-14.3 10c-5.5 0-10-4.5-10-10s4.5-10 10-10 10 4.5 10 10-4.5 10-10 10zm44.7-10.1c0-7.8-6.3-14.1-14.1-14.2h-.4c-7.8.1-14 6.4-14.1 14.2 0 7.8 6.4 14.2 14.2 14.2 8 .1 14.4-6.3 14.4-14.2zM128.9 111c-5.5 0-10-4.5-10-10s4.5-10 10-10 10 4.5 10 10-4.5 10-10 10zM98.4 97c-2.3 0-4.1 1.8-4.1 4.1s1.8 4.1 4.1 4.1 4.1-1.8 4.1-4.1-1.8-4.1-4.1-4.1zm30.5-4.9c-4.9 0-9 4-9 9s4 9 9 9c4.9 0 9-4 9-9s-4.1-9-9-9zm0 14.1c-2.8 0-5.1-2.3-5.1-5.1s2.3-5.1 5.1-5.1 5.1 2.3 5.1 5.1-2.3 5.1-5.1 5.1zm0-9.2c-2.3 0-4.1 1.8-4.1 4.1s1.8 4.1 4.1 4.1 4.1-1.8 4.1-4.1-1.9-4.1-4.1-4.1zm15.1 9.3c-1.4 3.8-4.1 7-7.7 8.9h15.4c-3.5-1.9-6.3-5.1-7.7-8.9zm15.2-19.6c-7.9 0-14.2 6.4-14.2 14.2 0 7.9 6.4 14.2 14.2 14.2 7.9 0 14.2-6.4 14.2-14.2.1-7.8-6.3-14.2-14.2-14.2zm.4 24.3c-5.5 0-10-4.5-10-10s4.5-10 10-10 10 4.5 10 10-4.5 10-10 10zm0-14c-2.3 0-4.1 1.8-4.1 4.1s1.8 4.1 4.1 4.1 4.1-1.8 4.1-4.1-1.8-4.1-4.1-4.1zm0-4.9c-4.9 0-9 4-9 9s4 9 9 9c4.9 0 9-4 9-9s-4-9-9-9zm0 14.1c-2.8 0-5.1-2.3-5.1-5.1s2.3-5.1 5.1-5.1 5.1 2.3 5.1 5.1-2.3 5.1-5.1 5.1zm-45.9.1c-1.4 3.8-4.1 7-7.7 8.9h15.3c-3.5-1.9-6.3-5.1-7.6-8.9zM98.4 92.1c-4.9 0-9 4-9 9s4 9 9 9c4.9 0 9-4 9-9s-4.1-9-9-9zm0 14.1c-2.8 0-5.1-2.3-5.1-5.1s2.3-5.1 5.1-5.1 5.1 2.3 5.1 5.1-2.3 5.1-5.1 5.1z"/>
	</symbol>
	<symbol id="figure5" viewBox="0 0 200 140">
		<path d="M100.6 48.9l-13.8-24-11.4 14.4 22.8 13.9 2.4-4.3zm31.3-17l-6.2 3.3-6.5-11.2H88.6l26.8 46.8 16.5-38.9zm8 27.9l-23 13.4 5.3 9.2H148l.1-.1-8.2-22.5zm-25.6 55.9l-.1-7.3h18.7l13.9-24H91.3l23 31.3zm-45.9-7.3h19.9v-24h-5.9l-14 24zM53 61.3l7.3 4.1L53 78l13.9 29.1L96.5 56 53 61.3z"/>
	</symbol>
	<symbol id="figure6" viewBox="0 0 200 140">
		<path d="M44.8 75c-9.8 0-17.7 7.9-17.7 17.8 0 9.8 7.9 17.7 17.7 17.7 9.8 0 17.8-7.9 17.8-17.7 0-9.9-8-17.8-17.8-17.8zm0 28.7c-6 0-10.9-4.9-10.9-10.9s4.9-10.9 10.9-10.9 10.9 4.9 10.9 10.9c.1 6-4.8 10.9-10.9 10.9zm0-20.3c-5.2 0-9.4 4.2-9.4 9.4s4.2 9.4 9.4 9.4 9.4-4.2 9.4-9.4-4.2-9.4-9.4-9.4zm25.9 1.5c0-3.7 3-6.7 6.7-6.7H91v-3.9c0-2.8.9-7.1 1.9-9.6l13.2-32.1c1-2.5-.3-4.6-3.1-4.6H52.3c-2.8 0-5 2.3-5 5v18c0 2.8-2.3 5-5 5h-6V45.9c0-1.2-1.8-2.4-2.5-3.1l-3.5-3.5c-1.1-1.1-2.9.6-1.8 1.8l3.5 3.5 1.8 1.8V56H21c-2.8 0-5 2.3-5 5v2.1h10.4c1.6 0 1.6 2.5 0 2.5H16v3h7.4c1.6 0 1.6 2.5 0 2.5H16V93c0 2.8 2.2 5 4.9 5s4.6-1.5 4.2-3.4v-1.8C25.1 81.9 34 73 44.8 73c10.9 0 19.8 8.9 19.8 19.8v1.8c-.4 1.9 1.5 3.4 4.3 3.4H86c2.8 0 5-2.3 5-5v-1.4H77.4c-3.7 0-6.7-3-6.7-6.7zM57.8 35.4c-1.4 0-2.6 1.2-2.6 2.7v31.2c0 .5-.4 1-1 1-.5 0-1-.4-1-1V38c0-2.6 2.1-4.7 4.6-4.7h36.4c1.3 0 2.3.5 2.9 1.4.6.9.7 2.1.2 3.3l-4.7 11.7c-.2.3-.5.5-.8.5-.5 0-1-.4-1-1V49l4.7-11.7c.2-.6.2-1.1 0-1.5-.2-.3-.7-.5-1.3-.5H57.8zm14.9 49.5c0 2.5 2.1 4.6 4.6 4.6h41.9c2.5 0 4.6-2.1 4.6-4.6 0-2.5-2.1-4.6-4.6-4.6H77.3c-2.5 0-4.6 2.1-4.6 4.6zm46.5-25.6c-11.8 0-21.7 8-24.7 18.9h24.7c3.7 0 6.7 3 6.7 6.7s-3 6.7-6.7 6.7H94.5c2.9 10.9 12.9 18.9 24.7 18.9 14.1 0 25.6-11.5 25.6-25.6 0-14.1-11.5-25.6-25.6-25.6zm1.1 51.2s21.2.5 35.7-26c0 0 2.2-4 7.3-4s8.2 7.5 11.2 15.5c3.9 10.6 10.5 14.5 10.5 14.5h-64.7z"/>
	</symbol>
	<symbol id="figure7" viewBox="0 0 200 140">
		<path d="M130.1 108.4c3.7 6.5 14.4 11.2 27.1 11.2 12.7 0 23.4-4.7 27.1-11.2h-54.2zm39-5.6c-8.2-.3-5.4-1.4-17.3-3.5s-17.4 7.2-17.4 7.2h46.4c-.1.1-3.6-3.4-11.7-3.7zm-30.9-81.5c-1.4.2-2.5 1.1-4.1 3.1-1.1 1.4-1.6 1.8-2.1 2-.7.2-1.4-.2-2.2-1.1-.4-.5-1.4-1.8-1.8-2.6-.3-.5-.3-.5-.7.7-.5 1.5-.6 2.2-.6 3.8 0 1.9.3 3.1 1.1 5 .3.7.3.7.1.8-.2 0-3.3.4-5.8.7-13.4 1.4-26.5 2.1-45.1 2.4-7.9.1-32 .1-33.9 0-.8 0-2.5-.1-3.7-.2-4.9-.3-8.4-.2-11.1.1-7.3.8-10.8 3.7-11.3 9-.4 4.1 1.4 8.2 5.5 12.8l.9 1-.1 1c-.2 1.7-.2 6.3-.1 8.2.2 3.2.5 6.2 1.2 10.1 1.3 7.5 1.4 8 1.4 10.4 0 1.7-.1 2.9-.6 7.5-.6 5.5-.7 8-.7 11 0 7.8 1.7 11.8 5.3 12.6.9.2 2.6.1 3.7-.2.5-.1.9-.2.9-.2s-.1-.3-.2-.7c-.7-1.9-1.3-4.4-1.5-6.5-.2-1.6-.2-4.4 0-6 .4-3.8 1.6-7.6 3.5-11 1.3-2.3 2.7-4.1 4.8-6.3 3.9-4 6.6-7.6 9.1-12.8 1.1-2.1 3-6.7 3.2-7.6.1-.5.2-.3.1.4-.7 4.4-2.5 9.3-4.7 13-1.4 2.3-2.4 3.6-4.4 5.6l-1.5 1.5.3.7c.1.4 1 3 1.8 5.8 2.2 7.1 3.2 10.1 4.6 13.1 3.8 8.6 8.3 12.2 13.8 10.9l.8-.2-.2-.3c-1.4-1.8-2.6-3.5-3.6-5.6-1.4-2.8-2.3-5.4-2.8-8.4-.3-1.9-.4-3-.4-5.1 0-4.3.8-8.2 2.5-12 1.1-2.5 3.2-5.9 3.9-6.3.5-.3 1.3-.4 3-.3 2.9.1 6.2.8 14.2 2.9 1.9.5 3.9 1 4.3 1.1 1.8.4 2.3.6 2.9 1.6 1 1.4 1.4 3.8 1.4 7.6 0 4.1-.4 8.5-1.6 16-1.1 8.8 3.3 9.2 5.2 9.1 1-.1 2.2-.3 2.3-.4l-.2-1c-.3-1.3-.6-2.7-.8-4.2-.1-.9-.1-1.7-.1-3.7 0-2.7.1-3.7.6-6 .9-4.4 2.8-8.7 5.6-12.3l.6-.7-.1-1c-.2-3.3-1.6-8.1-3.4-11.8-.3-.7-.6-1.2-.5-1.2.1 0 1.4 1.4 1.8 2 1.4 2 2.5 5.4 2.9 9.3.2 1.3.4 5.3.6 8.1.2 5.4.4 7.8.7 10.2.5 4.3 1.5 7.5 2.8 9.6.5.8 1.8 2 2.5 2.4 1.1.6 1.7.7 3.3.7 1.2 0 1.5 0 2.3-.2.5-.1.9-.2.9-.3s-.2-.6-.4-1.2c-1.4-3.6-2.4-7.5-2.9-11.3-.2-2-.3-6.5 0-8.5.4-3.6 1.1-6.6 2.3-9.9 2.4-6.7 6.5-13.4 13-21.6 2.8-3.6 7.5-9 8.2-9.5.6-.5 2-1.2 2.9-1.4 2.1-.5 4.7-.5 9.8.3 2.5.4 4 .5 5.6.6 3.7.2 6.7-.4 8.9-1.9.9-.6 2.1-1.9 2.7-2.8l.6-.9-.7-1.3c-4.7-8.5-11.2-15-20.7-20.7l-1.3-.8 6.9-3.5 6.9-3.5-2.9-.1c-1.6 0-4-.1-5.3-.1-4 .1-8.5.2-10.1.5zM27.9 41.1s-.1.2-.2.3c-.6.9-1.3 2.7-1.6 4-.3 1.7-.3 4.7 0 5.7.7 1.9 2.2 4 6.7 9.1 4.2 4.7 5.6 6.4 7 8.5.8 1.2 1.6 2.8 1.8 3.7.4 1.5.1 3.3-.5 3.1-.1 0-.3-.2-.4-.4-.2-.3-.3-.4-.3-1 0-1.8-1.3-4-4.8-8-.7-.8-2.1-2.4-3.2-3.6-4.2-4.7-6-7.1-7.2-9.6-.6-1.3-.8-1.9-.9-3-.1-1.6.2-4.2.7-5.7.5-1.4 1.3-2.6 2-2.9.4-.1.9-.2.9-.2z"/>
	</symbol>
	<symbol id="figure8" viewBox="0 0 200 140">
		<path d="M84.4 81.2V68.8l-5.2-5.2c-1.1-1.1.6-2.9 1.8-1.8l3.4 3.4V56l-6.9-6.9c-1.1-1.1.6-2.9 1.8-1.8l5.1 5.1V40c0-1.6 2.5-1.6 2.5 0v18.4l6.1-6.1c1.1-1.1 2.9.6 1.8 1.8L87 61.9v19.3c3.9-3.4 15.8-14.7 15.8-28.1 0-16.1-17-29.1-17-29.1s-17 13-17 29.1c-.1 13.4 11.7 24.7 15.6 28.1zm28.9 15.5c-9.1-2.9-18-4.2-26.4-4.5v8c2.5 1.7 5.1 3.4 7.6 5.1 1.3.9.1 3.1-1.3 2.2l-6.3-4.2v6.2c0 1.6-2.5 1.6-2.5 0v-.9c-2.2 1.2-4.3 2.3-6.5 3.5-1.4.8-2.7-1.4-1.3-2.2 2.6-1.4 5.1-2.8 7.7-4.2V92.1C42.5 91.5 12 117 12 117h177.3c-30.6 0-20-2.8-76-20.3z"/>
	</symbol>
</svg>