<?xml version="1.0" encoding="utf-8"?>
<!-- Generator: Adobe Illustrator 16.0.3, SVG Export Plug-In . SVG Version: 6.00 Build 0)  -->
<!DOCTYPE svg PUBLIC "-//W3C//DTD SVG 1.1//EN" "http://www.w3.org/Graphics/SVG/1.1/DTD/svg11.dtd">
<svg version="1.1" id="Layer_1" xmlns="http://www.w3.org/2000/svg" xmlns:xlink="http://www.w3.org/1999/xlink" x="0px" y="0px"
	 width="96.742px" height="94.279px" viewBox="0 0 96.742 94.279" enable-background="new 0 0 96.742 94.279" xml:space="preserve">
<path fill="#A9C038" d="M87.843,11.912C73.238-4.454,45.444-3.769,24.03,12.813h34.218V23.48h18.158l12.01,22.057v18.564
	C99.397,46.296,99.828,25.341,87.843,11.912z M58.248,26.315V44.48h26.365l-9.892-18.165H58.248z M58.248,63.541h3.357
	c0.695-5.074,5.047-9,10.31-9c5.144,0,9.417,3.751,10.257,8.659h3.409V47.315H58.248V63.541z M61.063,49.48h5.333v2.835h-5.333
	V49.48z M71.915,57.375c-4.181,0-7.583,3.401-7.583,7.583s3.401,7.583,7.583,7.583s7.583-3.401,7.583-7.583
	S76.096,57.375,71.915,57.375z M19.613,54.541c5.262,0,9.614,3.926,10.31,9h25.49V15.648H20.6c-0.062,0.055-0.126,0.105-0.188,0.161
	C5.307,29.287-1.8,47.728,0.389,63.541h8.915C9.999,58.466,14.351,54.541,19.613,54.541z M71.915,75.375
	c-5.262,0-9.614-3.926-10.31-9H29.923c-0.695,5.074-5.047,9-10.31,9s-9.614-3.926-10.31-9h-8.41
	c1.271,5.922,3.903,11.396,7.999,15.987c15.443,17.303,45.634,15.558,67.435-3.893c4.264-3.805,7.882-8.009,10.843-12.435h-4.894
	C81.735,71.275,77.295,75.375,71.915,75.375z M19.613,57.375c-4.181,0-7.583,3.401-7.583,7.583s3.401,7.583,7.583,7.583
	s7.583-3.401,7.583-7.583S23.794,57.375,19.613,57.375z"/>
</svg>
