<?xml version="1.0" encoding="utf-8"?>
<!-- Generator: Adobe Illustrator 16.0.3, SVG Export Plug-In . SVG Version: 6.00 Build 0)  -->
<!DOCTYPE svg PUBLIC "-//W3C//DTD SVG 1.1//EN" "http://www.w3.org/Graphics/SVG/1.1/DTD/svg11.dtd">
<svg version="1.1" id="Layer_1" xmlns="http://www.w3.org/2000/svg" xmlns:xlink="http://www.w3.org/1999/xlink" x="0px" y="0px"
	 width="96.739px" height="94.285px" viewBox="0 0 96.739 94.285" enable-background="new 0 0 96.739 94.285" xml:space="preserve">
<path fill="#A9C038" d="M49.142,23.485c4.181,0,7.583-3.401,7.583-7.583S53.323,8.32,49.142,8.32s-7.583,3.401-7.583,7.583
	S44.96,23.485,49.142,23.485z M0,58.058c0.05,9.088,2.928,17.63,8.887,24.309c15.443,17.303,45.634,15.558,67.435-3.893
	c4.879-4.354,8.918-9.228,12.085-14.363c-9.098,5.418-23.776,8.875-40.639,8.875C25.254,72.986,6.641,66.825,0,58.058z
	 M96.031,44.468c2.108-12.072-0.455-23.881-8.193-32.552C72.396-5.386,42.207-3.641,20.407,15.813
	C12.583,22.795,6.916,31.11,3.561,39.7c4.227-3.336,10.543-6.034,18.757-7.919l0.634,2.763c-11.249,2.582-18.74,6.771-21.519,11.838
	c-1.125,2.226-1.25,2.601-1.093,5.82c1.717,9.855,22.729,17.949,47.428,17.949c19.417,0,36.559-5.002,43.839-11.93
	c1.445-3.059,2.597-6.173,3.436-9.294c-1.364-5.003-7.817-9.747-17.688-12.993l4.5,5.451l-2.186,1.805l-8.415-10.193l13.111-4.009
	l0.829,2.711l-6.045,1.849C87.272,36.346,93.108,40.155,96.031,44.468z M49.142,5.485c5.744,0,10.417,4.673,10.417,10.417
	S54.886,26.32,49.142,26.32s-10.417-4.673-10.417-10.417S43.397,5.485,49.142,5.485z M61.469,59.153h-4.244v4.583h-2.835v-12.44
	l3.217-11.766l2.734,0.747l-3.116,11.4v4.642h2.254l8.975-24.832H28.828l8.975,24.832h1.921v-4.686l-2.387-11.44l2.774-0.579
	l2.447,11.873v12.25h-2.835v-4.583h-3.911L24.789,28.651h47.706L61.469,59.153z"/>
</svg>
