<?xml version="1.0" encoding="utf-8"?>
<!-- Generator: Adobe Illustrator 16.0.3, SVG Export Plug-In . SVG Version: 6.00 Build 0)  -->
<!DOCTYPE svg PUBLIC "-//W3C//DTD SVG 1.1//EN" "http://www.w3.org/Graphics/SVG/1.1/DTD/svg11.dtd">
<svg version="1.1" id="Layer_1" xmlns="http://www.w3.org/2000/svg" xmlns:xlink="http://www.w3.org/1999/xlink" x="0px" y="0px"
	 width="96.741px" height="94.284px" viewBox="0 0 96.741 94.284" enable-background="new 0 0 96.741 94.284" xml:space="preserve">
<path fill="#A9C038" d="M24.646,62.62c0-0.652-0.15-1.268-0.404-1.826c-0.254,0.559-0.404,1.174-0.404,1.826s0.15,1.268,0.404,1.826
	C24.497,63.887,24.646,63.272,24.646,62.62z M28.276,67.057c2.447,0,4.437-1.99,4.437-4.437s-1.99-4.437-4.437-4.437
	c-0.965,0-1.853,0.318-2.582,0.843c0.68,1.033,1.078,2.267,1.078,3.594s-0.398,2.561-1.078,3.594
	C26.423,66.739,27.311,67.057,28.276,67.057z M87.845,11.917C72.403-5.386,42.214-3.641,20.414,15.813
	c-1.56,1.392-3.024,2.841-4.412,4.331c0.605-0.1,1.223-0.159,1.855-0.159H77.44c5.699,0,10.422,4.201,11.269,9.667h0.149V63.37
	C99.403,45.726,99.665,25.162,87.845,11.917z M77.44,22.82H17.857c-4.133,0-7.591,2.936-8.402,6.832h76.387
	C85.031,25.756,81.573,22.82,77.44,22.82z M9.274,40.985h76.749v-8.499H9.274V40.985z M20.209,67.057
	c0.965,0,1.853-0.318,2.582-0.843c-0.68-1.033-1.078-2.267-1.078-3.594s0.398-2.561,1.078-3.594
	c-0.729-0.525-1.616-0.843-2.582-0.843c-2.447,0-4.437,1.99-4.437,4.437S17.763,67.057,20.209,67.057z M9.274,64.735
	c0,4.733,3.85,8.583,8.583,8.583H77.44c4.733,0,8.583-3.85,8.583-8.583V43.82H9.274V64.735z M20.209,56.057
	c1.521,0,2.919,0.525,4.033,1.396c1.114-0.872,2.512-1.396,4.033-1.396c3.619,0,6.563,2.944,6.563,6.563s-2.944,6.563-6.563,6.563
	c-1.521,0-2.919-0.525-4.033-1.396c-1.114,0.872-2.512,1.396-4.033,1.396c-3.619,0-6.563-2.944-6.563-6.563
	S16.591,56.057,20.209,56.057z M17.857,76.153c-6.296,0-11.418-5.122-11.418-11.418V33.469c-9.099,17.043-8.798,36.288,2.455,48.898
	c15.443,17.303,45.634,15.558,67.435-3.893c0.885-0.79,1.731-1.602,2.561-2.423c-0.476,0.061-0.958,0.103-1.45,0.103H17.857z"/>
</svg>
