<svg xmlns="http://www.w3.org/2000/svg">
	<symbol id="swipe" viewBox="-283.4 386.6 20.7 21.4">
		<path d="M-265.3 398.2c-1.5-1-3.6-.8-5 .6l-.7.7V390c0-1.1-.9-2-2-2s-2 .9-2 2v4.4c-.4-.4-.9-.7-1.5-.7-.4 0-.8.1-1.2.4l-4.3 2.5c-.6.3-1 1-1 1.7v3.3c0 3.6 2.9 6.5 6.5 6.5 1.7 0 3.3-.7 4.5-1.8l6.9-6.9c.3-.3.3-.7 0-1-.2-.1-.2-.1-.2-.2zM-266 393.4l3.4-3.4-3.4-3.4v2.4h-3v2h3M-280 391h3v-2h-3v-2.4l-3.4 3.4 3.4 3.4"/>
	</symbol>
	<symbol id="cart" viewBox="79.99 214.457 435.299 411.115">
		<path d="M204.207 482.92l300.85-62.905c5.582-.93 10.232-5.58 10.232-12.092V279.565c0-7.44-5.582-13.02-13.022-13.02H186.695l-4.39-40.926c-.93-6.512-6.51-11.163-13.022-11.163H79.99V240.5h78.13l24.185 228.812-21.315 54.108c-1.256-.096-2.52-.16-3.798-.16-27.904 0-51.157 23.252-51.157 51.156 0 27.903 23.253 51.156 51.157 51.156 27.903 0 51.156-23.253 51.156-51.156 0-9.46-2.678-18.38-7.297-26.044h218.074c-3.912 7.2-6.148 15.397-6.148 24.044 0 27.903 23.253 51.156 51.156 51.156 27.904 0 51.157-23.253 51.157-51.156 0-27.904-23.254-51.157-51.158-51.157-1.186 0-2.36.057-3.526.14h-271.79l15.39-38.48zm-47.015 117.54c-14.883 0-26.044-11.162-26.044-26.044s12.092-26.044 26.044-26.044c13.95 0 26.043 11.162 26.043 26.044s-11.162 26.043-26.043 26.043zm332.984-28.044c0 14.882-11.162 26.043-26.044 26.043s-26.043-11.162-26.043-26.044 12.09-26.044 26.042-26.044c13.952 0 26.044 11.162 26.044 26.044z"/>
	</symbol>
	<symbol id="search" viewBox="76.271 198.646 442.739 443.67">
		<path d="M519.01 622.782l-124-124.917c27.07-31.66 43.592-72.784 44.01-117.846 0-100.454-80.922-181.375-181.375-181.375S76.27 280.495 76.27 380.02c0 100.454 81.852 181.375 181.375 181.375 44.522 0 85.314-16.204 116.896-43.098l124.938 124.02 19.532-19.535zM257.645 536.28c-85.57 0-155.33-69.76-155.33-155.33s69.76-155.332 155.33-155.332c84.642 0 154.4 69.76 155.33 155.33 0 85.573-69.76 155.332-155.33 155.332z"/>
	</symbol>
	<symbol id="check" viewBox="-293 385 24 24">
		<path d="M-281 385c-6.6 0-12 5.4-12 12s5.4 12 12 12 12-5.4 12-12-5.4-12-12-12zm-1.3 16.5l-4.5-4.3 1.4-1.4 3.1 2.9 6.1-6.2 1.4 1.4-7.5 7.6z"/>
	</symbol>
	<symbol id="download" viewBox="0 0 24 24">
		<path d="M12 0C5.373 0 0 5.373 0 12s5.373 12 12 12 12-5.373 12-12S18.627 0 12 0zm2 9h-4V8h4v1zm0-3v1h-4V6h4zm-2 13l-6-6h4v-3h4v3h4l-6 6z"/>
	</symbol>
	<symbol id="close" viewBox="0 0 22.004 21.011">
		<path d="M22.004 1.42L20.647 0l-9.63 9.14L1.69.28.314 1.73l9.25 8.788L0 19.59l1.355 1.42 9.633-9.138 9.325 8.858 1.378-1.45-9.25-8.787"/>
	</symbol>
	<symbol id="camera" viewBox="0 0 29 26">
		<path d="M26 4h-5c-1.3 0-3.5-4-5-4h-4.3C9.9 0 8.5 4 7 4H3C1.1 4 0 5.3 0 6.7v16.8C0 24.9 1.1 26 2.6 26h23.9c1.4 0 2.6-1.1 2.6-2.5V6.7C29 5.3 27.4 4 26 4zM11 22c-3.9 0-7-3.1-7-7s3.1-7 7-7 7 3.1 7 7-3.2 7-7 7zm13-11h-3V8h3v3z"/>
	</symbol>
	<symbol id="ribbon-promo" viewBox="0 0 96.745 94.278">
		<path d="M68.223 52.174c-7.096 0-12.87 5.773-12.87 12.87s5.774 12.868 12.87 12.868c7.097 0 12.87-5.773 12.87-12.87s-5.774-12.868-12.87-12.868zM25.066 45.66c7.097 0 12.87-5.772 12.87-12.868s-5.773-12.87-12.87-12.87c-7.096 0-12.87 5.774-12.87 12.87s5.775 12.87 12.87 12.87zm62.78-33.743C72.404-5.386 42.216-3.64 20.416 15.813c-1.408 1.255-2.743 2.556-4.01 3.89 2.484-1.65 5.46-2.616 8.66-2.616 8.66 0 15.704 7.045 15.704 15.704s-7.045 15.705-15.704 15.705S9.363 41.45 9.363 32.792c0-2.104.423-4.11 1.176-5.944-13.09 18.46-14.385 41.24-1.644 55.52.44.492.895.964 1.357 1.426l67.312-67.31 2.004 2.004-67.22 67.22c16.176 13.622 43.703 10.857 63.98-7.234l.02-.02c-2.374 1.445-5.15 2.293-8.128 2.293-8.66 0-15.703-7.045-15.703-15.704S59.562 49.34 68.22 49.34s15.704 7.044 15.704 15.703c0 2.975-.847 5.75-2.29 8.123 17.23-19.246 20.307-45.454 6.21-61.25z"/>
	</symbol>
	<symbol id="arrow-down" viewBox="0 0 16 9">
		<path d="M15.1 0l1 1-8.3 8-1-1 8.3-8z"/>
		<path d="M9.2 8.1l-1 1L0 1l1-1 8.2 8.1z"/>
	</symbol>
	<symbol id="shape-basic" viewBox="0 0 204.905 236.016">
		<path d="M162.89 9.377c45.685 25.416 55.66 94.656 22.282 154.65-33.38 59.996-97.472 88.028-143.156 62.61-45.685-25.415-55.66-94.655-22.282-154.65C53.11 11.99 117.204-16.04 162.89 9.377z"/>
	</symbol>
	<symbol id="mask" viewBox="0 0 166 162">
		<path d="M131.865 134.834c-37.516 33.42-89.47 36.42-116.046 6.69-26.57-29.73-17.694-80.927 19.824-114.354 37.514-33.425 89.467-36.426 116.04-6.695 7.7 8.616 12.404 19.04 14.316 30.305V0H-.5v162H166V74.983c-3.322 21.104-14.986 42.793-34.135 59.85z"/>
	</symbol>
	<symbol id="career" viewBox="0 0 96.3 93.5">
		<path d="M44.8 45l4.8 17.2 6-17.2-5.4-4.8-5.4 4.8zm5.4-34.2c-5.3 0-9.6 4.3-9.6 9.6s4.3 9.6 9.6 9.6 9.6-4.3 9.6-9.6-4.3-9.6-9.6-9.6zm37.6.8c-15.1-17-45.1-15.2-67 4.2s-27.4 49-12.3 66c7.3 8.2 18.1 12 29.8 11.6V75.1h-5l-14-38.6H36l.7 3.6H24.5l11.4 31.4h2.4v-5.9l-3-14.5 3.5-.7 3.1 15v27.7c4.9-.6 10-1.9 15-3.9v-24l1-3.6L61 50.3l3.5.9-3.9 14.4v5.9h2.9l11.4-31.4H63.7l1-3.6h15.1l-14 38.6h-5.4v12.6c5.2-2.5 10.3-5.9 15.1-10.1 21.9-19.4 27.4-48.9 12.3-66zm-38.6 62L41 43.9l9.3-8.2 9.3 8.3-10.4 29.6zm1-40c-7.3 0-13.2-5.9-13.2-13.2S42.9 7.2 50.2 7.2c7.3 0 13.2 5.9 13.2 13.2s-5.9 13.2-13.2 13.2z"/>
	</symbol>
	<symbol id="facebook" viewBox="0 0 24 24">
		<path d="M12 0C5.373 0 0 5.373 0 12s5.373 12 12 12 12-5.373 12-12S18.627 0 12 0zm3 8h-1.35c-.538 0-.65.22-.65.778V10h2l-.21 2H13v7h-3v-7H8v-2h2V7.692C10 5.922 10.93 5 13.03 5H15v3z"/>
	</symbol>
	<symbol id="google" viewBox="0 0 24 24">
		<path d="M12 0C5.373 0 0 5.373 0 12s5.373 12 12 12 12-5.373 12-12S18.627 0 12 0zM9.083 16.083C6.825 16.083 5 14.258 5 12s1.825-4.083 4.083-4.083c1.103 0 2.024.402 2.735 1.067l-1.107 1.068c-.303-.292-.833-.63-1.627-.63-1.394 0-2.53 1.155-2.53 2.58 0 1.423 1.137 2.578 2.53 2.578 1.616 0 2.224-1.162 2.316-1.762H9.082v-1.4h3.855c.036.204.064.408.064.677 0 2.332-1.563 3.988-3.92 3.988zm9.917-3.5h-1.75v1.75h-1.167v-1.75h-1.75v-1.166h1.75v-1.75h1.167v1.75H19v1.166z"/>
	</symbol>
	<symbol id="figure1" viewBox="0 0 54.522 54.565">
		<path d="M13.918 53.477c2.018.65 4.153 1.015 6.357 1.09h1.653c2.24-.067 4.534-.423 6.82-1.055V48.84h-14.83v4.637zm31.344-19.452h-14.83v5.726h14.83v-5.725zm-24.77 7.408H5.663v5.726h14.83v-5.727zM28.75 19.21H13.917v5.726h14.83V19.21zM5.66 32.344h14.83v-5.727H5.663v5.727zm16.513 14.814h14.83v-5.726h-14.83v5.726zm-9.94-13.133H0c.047 1.973.324 3.894.83 5.726h11.406v-5.725zm36.318-28.11C39.15-3.455 21.99-1.48 10.228 10.327c-2.23 2.237-4.103 4.668-5.614 7.2H30.43v9.09h-8.255v5.727h24.77v7.407h1.176c8.22-11.346 8.697-25.6.433-33.835zM3.98 46.345v-4.912H1.36c.643 1.752 1.52 3.4 2.62 4.91zm8.256-27.135h-8.56c-.985 1.876-1.778 3.796-2.37 5.726h10.93V19.21zm26.45 27.948h2.352c1.118-.89 2.205-1.855 3.247-2.9.907-.912 1.748-1.857 2.537-2.825h-8.135v5.725zM3.98 26.618H.84c-.475 1.92-.747 3.84-.822 5.726H3.98v-5.727zm8.256 26.236V48.84h-6.09c1.787 1.736 3.846 3.07 6.09 4.014zm1.682-13.103h14.83v-5.725H13.92v5.726zM30.43 52.998c2.844-.958 5.653-2.348 8.32-4.157h-8.32v4.157z"/>
	</symbol>
	<symbol id="figure2" viewBox="0 0 54.534 54.294">
		<path d="M48.565 5.63c-2.162-2.155-4.735-3.7-7.557-4.675 2.924 2.064 4.84 5.467 4.84 9.31v32.042C56.202 30.6 57.537 14.567 48.564 5.63zM10.127 29.29h27.678c-.436-7.255-6.477-13.023-13.84-13.023S10.564 22.036 10.128 29.29zM34.455.555c-5.354 0-9.71 4.356-9.71 9.71v4.342c8.21.407 14.767 7.216 14.767 15.526v.84H8.42v-.84c0-8.27 6.49-15.048 14.643-15.518v-4.35C23.063 5.75 25.7 1.842 29.517 0c-6.7.957-13.613 4.354-19.277 10.04C-1.52 21.844-3.433 39.01 5.973 48.38c9.37 9.336 26.436 7.406 38.193-4.285v-33.83c0-5.354-4.356-9.71-9.71-9.71zm-24.353 37.94H8.42V32.6h1.682v5.895zm5.427 5.217h-1.683v-11.11h1.682v11.11zm5.7 5.066h-1.68V32.6h1.682V48.78zm6.46 0h-1.682V32.6h1.682V48.78zm6.362-5.066H32.37v-11.11h1.682v11.11zm5.46-5.217H37.83V32.6h1.682v5.895z"/>
	</symbol>
	<symbol id="figure3" viewBox="0 0 54.523 54.576">
		<path d="M36.693 29.036v21.102c2.61-1.523 5.116-3.43 7.42-5.71V28.953l-3.664-3.237-3.757 3.32zm-9.202 0v24.796c2.525-.584 5.054-1.508 7.512-2.767v-22.03l-3.755-3.318-3.756 3.32zm21.07-23.12c-9.406-9.37-26.564-7.396-38.326 4.41-4.563 4.58-7.636 9.966-9.147 15.39L3.64 23.46l4.6 4.066 4.603-4.066 4.602 4.066 4.6-4.066 4.603 4.066 4.602-4.066 4.602 4.066 4.6-4.066 4.557 4.025 4.554-4.025 4.283 3.785c1.77-8.02.104-15.957-5.288-21.33zM9.085 29.035v22.146c2.266 1.475 4.807 2.467 7.512 2.98V29.035l-3.756-3.32-3.756 3.32zm9.202 0v25.377c2.428.28 4.957.198 7.512-.238v-25.14l-3.756-3.318-3.756 3.32zm27.608-.082V42.53c3.566-4.05 6.06-8.61 7.42-13.22v-.274l-3.757-3.32-3.664 3.238zM.44 28.544c-1.355 7.604.402 15.02 5.525 20.123.456.455.937.876 1.43 1.277V29.036l-3.755-3.32-3.2 2.828z"/>
	</symbol>
	<symbol id="figure4" viewBox="0 0 54.798 55.758">
		<path d="M31.163 38.055l10.282 10.282c.557-.45 1.104-.915 1.643-1.403l-6.97-6.97 1.002-1 6.998 6.996c.472-.46.938-.933 1.39-1.426 1.065-1.158 2.04-2.36 2.924-3.598L38.394 30.9c-1.47 3.17-4.042 5.72-7.23 7.155zm-5.71-26.33l-1.34.94 8.56 8.425-2.255 8.835-8.783 2.462-8.43-8.295-1.068 1.027c.16 7.084 5.972 12.798 13.094 12.798 7.224 0 13.1-5.875 13.1-13.098-.002-7.147-5.758-12.976-12.878-13.094zM47.96 5.523c-10-9.197-27.314-6.644-38.67 5.704C-2.065 23.574-3.163 41.04 6.838 50.238c8.573 7.884 22.518 7.126 33.48-1.027L29.72 38.617c-1.414.463-2.92.72-4.49.72-8.002 0-14.514-6.512-14.514-14.516v-.302l2.502-2.403 8.825 8.686 7.205-2.02 1.852-7.25-9.192-9.05 3.1-2.175h.224c8.004 0 14.516 6.512 14.516 14.515 0 1.628-.28 3.188-.777 4.65l10.277 10.276c7.718-11.75 7.48-26.163-1.286-34.224z"/>
	</symbol>
</svg>